# xmcd CD database file
#
# Track frame offsets:
#	183
#	16663
#	36410
#	48428
#	55380
#	68588
#	84048
#	94098
#
# Disc length: 1573 seconds
#
# Revision: 0
# Processed by: cddbd v1.4PL0 Copyright (c) Steve Scherf et al.
# Submitted via: CDex 1.50Beta6
#
DISCID=58062308
DTITLE=Lightnin' Hopkins - The Lost Texas Tapes Volume 5
DYEAR=1900
DGENRE=Blues
TTITLE0=Back In My Mothers Arms (Lightnin' Hopkins) 
TTITLE1=John Hardy (Curley Lee) 
TTITLE2=Goodnight Irene (Lightnin' Hopkins, Curley Lee) 
TTITLE3=Chicka Choca Shalali (Irish O'Malley) 
TTITLE4=One Meat Ball (Curley Lee, Lightnin' Hopkins) 
TTITLE5=Sorrow To My Heart (Curley Lee, Lightnin' Hopkins) 
TTITLE6=Blow Out The Candle (Irish O'Malley) 
TTITLE7=Chicken Minnie (Lightnin' Hopkins
EXTD=
EXTT0=
EXTT1=
EXTT2=
EXTT3=
EXTT4=
EXTT5=
EXTT6=
EXTT7=
PLAYORDER=
